<?xml version="1.0" encoding="UTF-8" standalone="no"?><!DOCTYPE svg PUBLIC "-//W3C//DTD SVG 1.1//EN" "http://www.w3.org/Graphics/SVG/1.1/DTD/svg11.dtd"><svg width="100%" height="100%" viewBox="0 0 59262 33334" version="1.1" xmlns="http://www.w3.org/2000/svg" xmlns:xlink="http://www.w3.org/1999/xlink" xml:space="preserve" xmlns:serif="http://www.serif.com/" style="fill-rule:evenodd;clip-rule:evenodd;stroke-linejoin:round;stroke-miterlimit:2;"><path d="M-1704.19,20849.7c0,-0 7513.94,-13401.1 29436,-4415.4c21922.1,8985.72 19753.1,-7359 25717.7,-1704.19c5964.67,5654.83 6739.28,77.461 6739.28,77.461l6274.5,1704.19l1161.94,15415.2l-24013.6,12239.2l-28196.6,-2943.6l-16654.6,-3021.06l-464.778,-17351.7l0,-0.022Z" style="fill:#e2e2e2;"/><path d="M8288.56,37814.1c-0,0 -619.706,-10689.9 15492.6,-12006.8c16112.3,-1316.87 13401.1,-6894.22 19675.6,-8211.11c6445.78,-1352.81 4802.71,929.561 14408.1,2943.6c9605.44,2014.04 10457.5,8520.94 10457.5,8520.94l-8598.39,11387.1c-0,0 -15570.1,0 -16267.3,-154.928c-697.166,-154.922 -16189.8,-929.555 -16189.8,-929.555l-17429.2,309.85l-1549.26,-1859.11l0.095,0.033Z" style="fill:#ebebeb;"/><path d="M-1936.58,21082.1c0,-0 12394.1,7281.56 21844.6,7591.39c9450.5,309.85 15027.8,-852.094 15492.6,8366c464.778,9218.11 -17739.1,7978.72 -17739.1,7978.72l-18668.6,-2246.43l-314.2,-21340.3l-615.356,-349.383l0,-0.022Z" style="fill:#f8f8f8;"/></svg>