<?xml version="1.0" encoding="UTF-8" standalone="no"?><!DOCTYPE svg PUBLIC "-//W3C//DTD SVG 1.1//EN" "http://www.w3.org/Graphics/SVG/1.1/DTD/svg11.dtd"><svg width="100%" height="100%" viewBox="0 0 10667 6000" version="1.1" xmlns="http://www.w3.org/2000/svg" xmlns:xlink="http://www.w3.org/1999/xlink" xml:space="preserve" xmlns:serif="http://www.serif.com/" style="fill-rule:evenodd;clip-rule:evenodd;stroke-linejoin:round;stroke-miterlimit:2;"><path d="M-306.754,3752.94c0,0 1352.51,-2412.2 5298.48,-794.771c3945.97,1617.43 3555.56,-1324.62 4629.19,-306.754c1073.64,1017.87 1213.07,13.943 1213.07,13.943l1129.41,306.754l209.15,2774.73l-4322.44,2203.05l-5075.38,-529.847l-2997.82,-543.791l-83.66,-3123.31Z" style="fill:#f6f6f6;"/><path d="M1491.94,6806.54c-0,-0 -111.547,-1924.18 2788.67,-2161.22c2900.22,-237.037 2412.2,-1240.96 3541.61,-1478c1160.24,-243.506 864.488,167.321 2593.46,529.848c1728.98,362.527 1882.35,1533.77 1882.35,1533.77l-1547.71,2049.67c-0,0 -2802.62,0 -2928.11,-27.887c-125.49,-27.886 -2914.16,-167.32 -2914.16,-167.32l-3137.26,55.773l-278.867,-334.64Z" style="fill:#fafafa;"/><path d="M-348.584,3794.77c0,0 2230.94,1310.68 3932.03,1366.45c1701.09,55.773 2705.01,-153.377 2788.67,1505.88c83.66,1659.26 -3193.03,1436.17 -3193.03,1436.17l-3360.35,-404.357l-56.556,-3841.25l-110.764,-62.889Z" style="fill:#fff;"/></svg>